<?xml version="1.0" encoding="utf-8"?>
<!-- Generator: Adobe Illustrator 16.0.0, SVG Export Plug-In . SVG Version: 6.00 Build 0)  -->
<!DOCTYPE svg PUBLIC "-//W3C//DTD SVG 1.1//EN" "http://www.w3.org/Graphics/SVG/1.1/DTD/svg11.dtd">
<svg version="1.1" id="Layer_1" xmlns="http://www.w3.org/2000/svg" xmlns:xlink="http://www.w3.org/1999/xlink" x="0px" y="0px"
	 width="306px" height="99.36px" viewBox="0 0 306 99.36" enable-background="new 0 0 306 99.36" xml:space="preserve">
<rect x="-1367.081" y="1309.975" display="none" fill="none" width="805.987" height="28.418"/>
<g display="none">
</g>
<rect x="-1314.979" y="1282.366" display="none" fill="none" width="805.987" height="77.878"/>
<text transform="matrix(1 0 0 1 -1314.9785 1298.356)" display="none"><tspan x="0" y="0" display="inline" font-family="'FranklinGotT-MediCond'" font-size="24" letter-spacing="31">						</tspan><tspan x="216" y="0" display="inline" font-family="'FranklinGotT-MediCond'" font-size="24" letter-spacing="6">A</tspan><tspan x="234.383" y="0" display="inline" font-family="'FranklinGotT-MediCond'" font-size="24" letter-spacing="7">RTHOUSECOLLECTION.COM</tspan><tspan x="0" y="32" display="inline" font-family="'FranklinGotT-MediCond'" font-size="24" letter-spacing="3">ph 917.289.0782  hello@arthousecollection.com</tspan></text>
<rect x="-1366.282" y="1259.075" display="none" fill="none" width="377.458" height="77.878"/>
<text transform="matrix(1 0 0 1 -1366.2817 1298.4224)" display="none"><tspan x="0" y="0" display="inline" font-family="'FranklinGotT-Book'" font-size="59" letter-spacing="5">ar</tspan><tspan x="62.421" y="0" display="inline" font-family="'FranklinGotT-Book'" font-size="59" letter-spacing="7">t</tspan><tspan x="87.968" y="0" display="inline" font-family="'FranklinGothicT-RegularCondensed'" font-size="48" letter-spacing="4">HOUSE</tspan></text>
<rect x="-1334.979" y="1489.366" display="none" fill="none" width="805.987" height="77.878"/>
<text transform="matrix(1 0 0 1 -1334.9785 1505.356)" display="none"><tspan x="0" y="0" display="inline" font-family="'FranklinGotT-MediCond'" font-size="24" letter-spacing="31">						</tspan><tspan x="216" y="0" display="inline" font-family="'FranklinGotT-MediCond'" font-size="24" letter-spacing="6">A</tspan><tspan x="234.383" y="0" display="inline" font-family="'FranklinGotT-MediCond'" font-size="24" letter-spacing="7">RTHOUSECOLLECTION.COM</tspan><tspan x="0" y="32" display="inline" font-family="'FranklinGotT-MediCond'" font-size="24" letter-spacing="3">ph 917.289.0782  arthousenyc@gmail.com</tspan></text>
<g display="none">
	<g>
		<path d="M-1029.762,617.615c-0.088-0.419-0.088-0.578-0.158-1.561c-0.701,1.28-1.56,1.789-3.033,1.789
			c-1.787,0-3.015-1.069-3.015-2.612c0-1.017,0.597-1.945,1.524-2.401c0.79-0.403,1.929-0.597,3.384-0.597
			c0.333,0,0.597,0,1.14,0.035c0-0.876-0.035-1.122-0.175-1.49c-0.246-0.648-0.965-0.998-2.068-0.998
			c-1.315,0-2.104,0.525-2.333,1.561l-1.243-0.212c0.122-0.647,0.279-0.982,0.647-1.349c0.685-0.702,1.771-1.052,3.209-1.052
			c1.297,0,2.173,0.332,2.682,1.016c0.422,0.578,0.579,1.262,0.579,2.524v3.665c0,0.63,0.053,1.156,0.192,1.682H-1029.762z
			 M-1031.146,613.25c-2.157,0-3.384,0.735-3.384,2.017c0,0.929,0.735,1.542,1.823,1.542c1.595,0,2.804-1.278,2.804-2.962
			c0-0.157,0-0.332-0.017-0.561C-1030.429,613.269-1030.866,613.25-1031.146,613.25z"/>
		<path d="M-1025.081,617.615v-8.642h1.176v2.016c0.42-0.859,0.578-1.122,0.894-1.508c0.386-0.455,1.034-0.753,1.683-0.753
			c0.123,0,0.315,0.017,0.508,0.034v1.279c-1.631-0.14-2.874,1.157-2.909,2.998v4.575H-1025.081z"/>
		<path d="M-1013.074,617.755c-0.595,0.088-0.876,0.105-1.279,0.105c-1.63,0-2.473-0.894-2.473-2.63v-5.207h-1.524v-1.051h1.524
			l0.054-2.174l1.262-0.105v2.279h1.946v1.051h-1.946v5.418c0,0.895,0.473,1.35,1.402,1.35c0.316,0,0.562-0.018,1.034-0.105V617.755
			z"/>
		<path d="M-1010.13,608.103h2.325v3.736h1.683v-3.736h2.325v9.512h-2.325v-3.821h-1.683v3.821h-2.325V608.103z"/>
		<path d="M-994.441,612.851c0,3.125-1.299,4.95-3.481,4.95c-2.196,0-3.494-1.825-3.494-4.95c0-3.094,1.298-4.935,3.494-4.935
			C-995.74,607.917-994.441,609.743-994.441,612.851z M-998.707,610.313c-0.185,0.556-0.285,1.44-0.285,2.538
			c0,1.113,0.101,1.997,0.285,2.554c0.129,0.414,0.442,0.685,0.784,0.685c0.329,0,0.643-0.271,0.771-0.685
			c0.186-0.57,0.284-1.426,0.284-2.554c0-0.569-0.057-1.44-0.113-1.825c-0.144-0.941-0.456-1.398-0.942-1.398
			C-998.265,609.627-998.578,609.9-998.707,610.313z"/>
		<path d="M-989.779,608.103v6.789c0,0.385,0.043,0.626,0.128,0.783c0.114,0.243,0.456,0.414,0.813,0.414
			c0.384,0,0.699-0.186,0.827-0.471c0.085-0.214,0.1-0.371,0.1-0.927v-6.589h1.955v6.317c0,0.699,0,0.728-0.043,0.999
			c-0.215,1.511-1.313,2.382-2.995,2.382c-1.271,0-2.34-0.528-2.753-1.384c-0.285-0.557-0.356-1.027-0.356-2.226v-6.089H-989.779z"
			/>
		<path d="M-982.008,614.634c0.343,0.899,0.842,1.355,1.483,1.355c0.6,0,1.042-0.414,1.042-0.956c0-0.499-0.257-0.742-1.299-1.213
			c-1.896-0.869-2.553-1.653-2.553-3.051c0-1.627,1.299-2.854,3.01-2.854c1.34,0,2.311,0.729,2.823,2.111l-1.782,0.713
			c-0.158-0.741-0.557-1.126-1.141-1.126c-0.5,0-0.885,0.342-0.885,0.798c0,0.485,0.285,0.728,1.555,1.298
			c1.669,0.742,2.41,1.655,2.41,2.981c0,1.768-1.355,3.109-3.151,3.109c-1.513,0-2.696-0.886-3.266-2.453L-982.008,614.634z"/>
		<path d="M-975.062,608.103h5.634v1.811h-3.31v1.94h2.196v1.882h-2.196v2.068h3.31v1.811h-5.634V608.103z"/>
	</g>
	<rect x="-1020.379" y="603.393" fill="none" width="271.903" height="77.878"/>
	<text transform="matrix(1 0 0 1 -1020.3799 608.0591)"><tspan x="0" y="0" display="inline" font-family="'FranklinGotT-MediCond'" font-size="7" letter-spacing="34">								</tspan><tspan x="0" y="9.75" display="inline" font-family="'FranklinGotT-MediCond'" font-size="7" letter-spacing="34">	</tspan><tspan x="36" y="9.75" display="inline" font-family="'FranklinGotT-MediCond'" font-size="7" letter-spacing="2">       </tspan><tspan x="59.864" y="9.75" display="inline" font-family="'FranklinGotT-MediCond'" font-size="7" letter-spacing="1">A</tspan><tspan x="65.226" y="9.75" display="inline" font-family="'FranklinGotT-MediCond'" font-size="7" letter-spacing="2">RTHOUSECOLLECTION.COM</tspan><tspan x="0" y="19.5" display="inline" font-family="'FranklinGotT-MediCond'" font-size="7" letter-spacing="1">ph 917.289.0782   hello@arthousecollection.com</tspan></text>
	<g>
	</g>
	<g>
	</g>
</g>
<rect x="-708.316" y="603.711" display="none" fill="none" width="271.903" height="77.878"/>
<text transform="matrix(1 0 0 1 -708.3174 608.3794)" display="none"><tspan x="0" y="0" display="inline" font-family="'FranklinGotT-MediCond'" font-size="7" letter-spacing="34">								</tspan><tspan x="0" y="9.75" display="inline" font-family="'FranklinGotT-MediCond'" font-size="7" letter-spacing="34">	</tspan><tspan x="36" y="9.75" display="inline" font-family="'FranklinGotT-MediCond'" font-size="7" letter-spacing="2">       </tspan><tspan x="59.864" y="9.75" display="inline" font-family="'FranklinGotT-MediCond'" font-size="7" letter-spacing="1">A</tspan><tspan x="65.227" y="9.75" display="inline" font-family="'FranklinGotT-MediCond'" font-size="7" letter-spacing="2">RTHOUSECOLLECTION.COM</tspan><tspan x="0" y="19.5" display="inline" font-family="'FranklinGotT-MediCond'" font-size="7" letter-spacing="1">ph 917.289.0782   arthouseny@gmail.com</tspan></text>
<g display="none">
</g>
<g display="none">
</g>
<rect x="-707.136" y="763.811" display="none" fill="none" width="271.903" height="77.878"/>
<text transform="matrix(1 0 0 1 -707.1357 768.812)" display="none"><tspan x="0" y="0" display="inline" font-family="'FranklinGotT-MediCond'" font-size="7.5" letter-spacing="34">								</tspan><tspan x="0" y="11" display="inline" font-family="'FranklinGotT-MediCond'" font-size="7.5" letter-spacing="34">	</tspan><tspan x="36" y="11" display="inline" font-family="'FranklinGotT-MediCond'" font-size="7.5" letter-spacing="2">        </tspan><tspan x="65.219" y="11" display="inline" font-family="'FranklinGotT-MediCond'" font-size="7.5" letter-spacing="2">A</tspan><tspan x="70.964" y="11" display="inline" font-family="'FranklinGotT-MediCond'" font-size="7.5" letter-spacing="2">RTHOUSECOLLECTION.COM</tspan><tspan x="0" y="22" display="inline" font-family="'FranklinGotT-MediCond'" font-size="7.5" letter-spacing="1">ph 917.289.0782   arthouseny@gmail.com</tspan></text>
<rect x="-1019.198" y="779.143" display="none" fill="none" width="271.903" height="77.878"/>
<text transform="matrix(1 0 0 1 -1019.1987 784.144)" display="none"><tspan x="0" y="0" display="inline" font-family="'FranklinGotT-MediCond'" font-size="7.5" letter-spacing="34">								</tspan><tspan x="0" y="11" display="inline" font-family="'FranklinGotT-MediCond'" font-size="7.5" letter-spacing="34">	</tspan><tspan x="36" y="11" display="inline" font-family="'FranklinGotT-MediCond'" font-size="7.5" letter-spacing="2">        </tspan><tspan x="65.219" y="11" display="inline" font-family="'FranklinGotT-MediCond'" font-size="7.5" letter-spacing="2">A</tspan><tspan x="70.964" y="11" display="inline" font-family="'FranklinGotT-MediCond'" font-size="7.5" letter-spacing="2">RTHOUSECOLLECTION.COM</tspan><tspan x="0" y="22" display="inline" font-family="'FranklinGotT-MediCond'" font-size="7.5" letter-spacing="1">ph 917.289.0782   hello@arthousecollection.com</tspan></text>
<g>
	<path d="M57.571,68.504c-0.309-1.484-0.309-2.041-0.557-5.503c-2.472,4.513-5.501,6.307-10.693,6.307
		c-6.306,0-10.632-3.772-10.632-9.212c0-3.585,2.102-6.86,5.377-8.468c2.782-1.421,6.801-2.102,11.931-2.102
		c1.175,0,2.102,0,4.018,0.126c0-3.094-0.123-3.959-0.618-5.256c-0.865-2.288-3.399-3.522-7.293-3.522
		c-4.637,0-7.418,1.854-8.223,5.5l-4.388-0.743c0.432-2.286,0.988-3.461,2.286-4.757c2.411-2.474,6.243-3.709,11.312-3.709
		c4.574,0,7.665,1.174,9.458,3.585c1.484,2.039,2.04,4.45,2.04,8.903v12.918c0,2.224,0.187,4.081,0.68,5.935H57.571z M52.688,53.111
		c-7.604,0-11.931,2.594-11.931,7.11c0,3.275,2.596,5.438,6.429,5.438c5.626,0,9.891-4.512,9.891-10.446
		c0-0.556,0-1.173-0.062-1.978C55.223,53.174,53.677,53.111,52.688,53.111z"/>
	<path d="M74.079,68.504V38.029h4.143v7.107c1.483-3.029,2.039-3.957,3.151-5.316c1.36-1.606,3.647-2.657,5.935-2.657
		c0.432,0,1.112,0.061,1.793,0.123v4.512c-5.749-0.495-10.138,4.081-10.262,10.572v16.133H74.079z"/>
	<path d="M116.417,68.998c-2.102,0.31-3.091,0.371-4.512,0.371c-5.749,0-8.717-3.154-8.717-9.273V41.738H97.81v-3.709h5.379
		l0.185-7.667l4.451-0.372v8.038h6.862v3.709h-6.862v19.1c0,3.153,1.669,4.759,4.945,4.759c1.112,0,1.978-0.062,3.647-0.37V68.998z"
		/>
	<path d="M126.798,34.959h8.197v13.176h5.935V34.959h8.198v33.544h-8.198V55.025h-5.935v13.479h-8.197V34.959z"/>
	<path d="M182.113,51.706c0,11.015-4.575,17.452-12.27,17.452c-7.746,0-12.322-6.437-12.322-17.452
		c0-10.912,4.576-17.401,12.322-17.401C177.538,34.305,182.113,40.743,182.113,51.706z M167.077,42.754
		c-0.653,1.961-1.006,5.081-1.006,8.952c0,3.923,0.353,7.042,1.006,9.003c0.452,1.457,1.561,2.412,2.767,2.412
		c1.156,0,2.263-0.955,2.716-2.412c0.653-2.014,1.006-5.03,1.006-9.003c0-2.011-0.202-5.079-0.402-6.436
		c-0.504-3.32-1.609-4.93-3.319-4.93C168.638,40.34,167.529,41.295,167.077,42.754z"/>
	<path d="M198.556,34.959v23.939c0,1.356,0.151,2.211,0.453,2.766c0.402,0.854,1.608,1.458,2.867,1.458
		c1.356,0,2.463-0.653,2.916-1.659c0.302-0.753,0.353-1.308,0.353-3.269V34.959h6.891v22.278c0,2.464,0,2.566-0.152,3.521
		c-0.754,5.331-4.626,8.4-10.561,8.4c-4.477,0-8.247-1.862-9.706-4.879c-1.006-1.961-1.257-3.621-1.257-7.846V34.959H198.556z"/>
	<path d="M225.961,57.993c1.206,3.168,2.967,4.777,5.229,4.777c2.112,0,3.673-1.46,3.673-3.37c0-1.761-0.906-2.615-4.577-4.274
		c-6.69-3.067-9.002-5.833-9.002-10.761c0-5.735,4.576-10.06,10.612-10.06c4.726,0,8.146,2.564,9.955,7.445l-6.285,2.513
		c-0.554-2.614-1.962-3.972-4.023-3.972c-1.761,0-3.117,1.206-3.117,2.816c0,1.711,1.004,2.564,5.48,4.576
		c5.885,2.616,8.499,5.834,8.499,10.51c0,6.237-4.777,10.965-11.113,10.965c-5.331,0-9.506-3.119-11.517-8.651L225.961,57.993z"/>
	<path d="M250.449,34.959h19.864v6.387h-11.668v6.839h7.746v6.64h-7.746v7.292h11.668v6.387h-19.864V34.959z"/>
</g>
</svg>
